# xmcd CD database file
#
# Track frame offsets:
#	150
#	13789
#	31845
#	60775
#	75699
#	106951
#	121289
#	139530
#	153022
#	173357
#	193712
#	210149
#	226081
#	243199
#	259517
#	277325
#	292566
#
# Disc length: 4125 seconds
#
# Revision: 0
# Processed by: cddbd v1.5.2PL0 Copyright (c) Steve Scherf et al.
# Submitted via: CDex 1.51
#
DISCID=c4101b11
DTITLE=Don "The D-Man" Oswald - Dog Creek Daddio
DYEAR=2009
DGENRE=Blues
TTITLE0=Just Another Fool (In A Three Piece Suit)
TTITLE1=Messed Up In The Meantime
TTITLE2=Ain't Enough Whiskey
TTITLE3=Babe You Drive Me Outta My Mind
TTITLE4=Earthly Girl
TTITLE5=Cajun Woman
TTITLE6=Suburban Blues
TTITLE7=Sin And Corruption
TTITLE8=Iola
TTITLE9=Turn Into A Fool
TTITLE10=Wide Open Spaces
TTITLE11=I Got Somethin' On My Mind
TTITLE12=Nickles In A Jar
TTITLE13=One Way Ticket (Back Home)
TTITLE14=All Night Drive-In Show
TTITLE15=No Apologies
TTITLE16=Synerzy
EXTD=YEAR: 2009
EXTT0=
EXTT1=
EXTT2=
EXTT3=
EXTT4=
EXTT5=
EXTT6=
EXTT7=
EXTT8=
EXTT9=
EXTT10=
EXTT11=
EXTT12=
EXTT13=
EXTT14=
EXTT15=
EXTT16=
PLAYORDER=
